<svg data-name="レイヤー 2" xmlns="http://www.w3.org/2000/svg" viewBox="0 0 15 15"><g data-name="沖縄"><rect width="15" height="15" rx="2" ry="2" fill="#e19a00"/><path d="M2.9 7.1c.1-.1.3-.5.7-.9C3 5.5 2.7 5 2 4.4l.7-1 .4.4c.5-.8.8-1.3.9-1.8l1.1.4-.3.6c-.3.5-.6 1.1-1 1.6.3.3.3.3.5.6.5-.8 1-1.7 1.1-2l1.1.6c0 .1-.1.2-.3.4-.7 1.1-1.4 2.1-2 2.9h1.3c-.1-.3-.2-.5-.4-.8l.8-.4c.4.8.6 1.4 1 2.4l-.9.4c0-.3 0-.3-.1-.6h-.7v5H3.9V8.2H2.1V7h.8zm.7 1.7c0 1.4-.3 2.6-.6 3.7L2 12c.3-1.1.5-1.9.5-3.3h1.1zm2.8-.1c.2 1.1.3 1.7.4 2.9l-1 .2c0-1.2-.2-2.2-.3-3l.9-.2zm4.6 2.5h2v1.3H8.4v.7H7.1V6.6c-.2.2-.2.3-.4.5-.1-.4-.4-.7-.7-1.1.6-.7.9-1.2 1.4-2.1.3-.7.6-1.3.6-1.8l1.3.3-.3.7c-.2.5-.3.8-.5 1.2h1.2c.4-.9.7-1.5.8-2.1l1.3.3c0 .2-.1.2-.3.6-.2.4-.3.7-.6 1.2h1.7v1.3h-1.9v1.1h1.6v1.2h-1.6v1.2h1.6v1.2h-1.6v1.4zM9.8 6.5V5.4H8.4v1.1h1.4zM8.4 8.7h1.4V7.5H8.4v1.2zm0 2.5h1.4V9.8H8.4v1.4z" fill="#fff"/></g></svg>