<svg xmlns="http://www.w3.org/2000/svg" viewBox="0 0 15 15"><defs><style>.cls-1{fill:#9696f0;}.cls-2{fill:#fff;}</style></defs><g id="レイヤー_2" data-name="レイヤー 2"><g id="凡例"><g id="DB"><g id="国"><rect class="cls-1" width="15" height="15" rx="2"/><path class="cls-2" d="M3.19,8.35c0-.4,0-.67,0-1.32a6.35,6.35,0,0,1-.92,1.21,6.62,6.62,0,0,0-.58-1.45,8.52,8.52,0,0,0,2-3.18A8.28,8.28,0,0,0,4.2,2l1.34.43A4,4,0,0,0,5.36,3a12.71,12.71,0,0,1-.92,2.23v6.58a12.67,12.67,0,0,0,.06,1.4H3.12c0-.48.07-.84.07-1.41ZM8.29,6.5H7a10.18,10.18,0,0,0-1.22,0,9.78,9.78,0,0,0,0-1.17V3.63a8.88,8.88,0,0,0,0-1.09,9.06,9.06,0,0,0,1.33.06H11a9.57,9.57,0,0,0,1.32-.06,9.38,9.38,0,0,0,0,1.17v1.7a9,9,0,0,0,0,1.13,1.58,1.58,0,0,0-.35,0H9.56v1h2.1A10.74,10.74,0,0,0,13,7.41V8.75c-.44,0-.9-.07-1.27-.07H10.08A7.73,7.73,0,0,0,11.37,10a8.26,8.26,0,0,0,1.92,1.23,6.81,6.81,0,0,0-.81,1.28A12.93,12.93,0,0,1,11,11.37a7.12,7.12,0,0,1-1.44-1.7c0,.39,0,1,0,1.28v1.11a8.07,8.07,0,0,0,.07,1.11H8.21a8.32,8.32,0,0,0,.08-1.12V10.93c0-.1,0-.53,0-1.28a6.71,6.71,0,0,1-1.54,1.86,8.71,8.71,0,0,1-1.43,1.07,4.22,4.22,0,0,0-.82-1.19A9.09,9.09,0,0,0,6.58,10,7.25,7.25,0,0,0,7.73,8.68H6.31A12.8,12.8,0,0,0,5,8.75V7.42a12,12,0,0,0,1.31.06h2ZM7.1,5.32h3.84V3.78H7.1Z"/></g></g></g></g></svg>