<svg data-name="レイヤー 2" xmlns="http://www.w3.org/2000/svg" viewBox="0 0 15 15"><g data-name="沖縄"><rect width="15" height="15" rx="2" ry="2" fill="#f0a0a7"/><path d="M5.4 6.4c.3-.4.6-.6 1.5-1.2 1-.8 1.8-1.1 2.5-1.1s1.7.6 1.7 1.6 0 .9-.3 1.8c-.4 1.8-.5 2.3-.5 2.7s.2.6.5.6.6-.2.8-.6c.3-.4.6-.9.7-1.4.3.6.4.9.8 1.4-.4.6-.5.9-.8 1.2-.5.6-1.1.9-1.8.9s-.8-.1-1-.3c-.4-.3-.6-.8-.6-1.5s0-1 .5-3c.2-.8.3-1.2.3-1.5s-.2-.4-.5-.4-.9.2-1.5.6c-.9.6-1.7 1.4-2.2 2v4.6H4V9.3c-.1.2-.2.3-.9 1-.3.3-.4.5-.6.7l-.7-1.4c.3-.2.5-.4.8-.7L4 7.5V5.7c-1.3 0-1.5.1-1.8.2V4.5h1.9V2.3h1.5v2.1h.1l.4.5c-.1 0-.2.1-.3.4l-.2.2-.1.2v.9z" fill="#fff"/></g></svg>